<?xml version="1.0" encoding="UTF-8"?>
<svg id="_圖層_1" xmlns="http://www.w3.org/2000/svg" version="1.1" viewBox="0 0 32 32">
  <!-- Generator: Adobe Illustrator 29.3.1, SVG Export Plug-In . SVG Version: 2.1.0 Build 151)  -->
  <defs>
    <style>
      .st0 {
        fill: none;
        stroke: #000;
        stroke-linecap: round;
        stroke-linejoin: round;
        stroke-width: 2px;
      }
    </style>
  </defs>
  <path class="st0" d="M23.3,23.3h0M23.9,18.9h.9c1.4,0,2,0,2.6.2.7.3,1.3.9,1.6,1.6.2.5.2,1.2.2,2.6s0,2-.2,2.6c-.3.7-.9,1.3-1.6,1.6-.5.2-1.2.2-2.6.2H7.2c-1.4,0-2,0-2.6-.2-.7-.3-1.3-.9-1.6-1.6-.2-.5-.2-1.2-.2-2.6s0-2,.2-2.6c.3-.7.9-1.3,1.6-1.6.5-.2,1.2-.2,2.6-.2h.9M16,20.4V4.3M16,20.4l-4.4-4.4M16,20.4l4.4-4.4"/>
</svg>