<?xml version="1.0" encoding="UTF-8"?>
<svg id="_圖層_1" data-name="圖層_1" xmlns="http://www.w3.org/2000/svg" version="1.1" viewBox="0 0 32 32">
  <!-- Generator: Adobe Illustrator 29.3.1, SVG Export Plug-In . SVG Version: 2.1.0 Build 151)  -->
  <path d="M30.1,8.3c-.1-.1-.2-.2-.3-.3-1.3-1.2-3.3-1.2-7.3-1.2h-.6c-1.8,0-2.7,0-3.5-.2-.5-.1-.9-.3-1.3-.5-.7-.4-1.4-1-2.6-2.3l-.9-.9c-.4-.4-.6-.6-.8-.8-.9-.8-2.1-1.3-3.3-1.4-.3,0-.6,0-1.2,0-1.3,0-2,0-2.6.1C3.2,1.3,1.3,3.2.8,5.7c0,.6,0,1.2,0,2.6v10.8c0,5.8,0,8.7,1.8,10.4s4.7,1.8,10.4,1.8h6.1c5.8,0,8.7,0,10.4-1.8,1.8-1.8,1.8-4.7,1.8-10.4v-3.4c0-4,0-6-1.2-7.4ZM25.2,14.1h-7.7c-.6,0-1.1-.5-1.1-1.1s.5-1.2,1.1-1.2h7.7c.6,0,1.1.5,1.1,1.2s-.5,1.1-1.1,1.1Z"/>
  <path d="M23.6,2.3c-.2,0-.5,0-1.1,0h-6.6l.6.6c1,1.1,1.4,1.4,1.9,1.7.3.2.5.3.8.4.5.1,1,.2,2.5.2h.5c1.5,0,2.8,0,3.7.1.2,0,.5,0,.7.1-.3-1.6-1.5-2.8-3.1-3Z"/>
</svg>