<?xml version="1.0" encoding="UTF-8"?>
<svg id="_圖層_1" data-name="圖層 1" xmlns="http://www.w3.org/2000/svg" viewBox="0 0 32 32">
  <defs>
    <style>
      .cls-1 {
        isolation: isolate;
        opacity: .5;
      }
    </style>
  </defs>
  <g class="cls-1">
    <path d="M15.59,31.37h-.03c-.26,0-.51-.02-.77-.04-.59-.05-1.03-.56-.99-1.15.05-.59.55-1.02,1.15-.99.22.02.44.03.66.04.59.02,1.06.51,1.04,1.1-.02.58-.49,1.04-1.07,1.04ZM20.52,30.65c-.45,0-.87-.28-1.02-.73-.19-.56.11-1.17.67-1.36.21-.07.42-.15.63-.23.55-.22,1.17.06,1.39.61.21.55-.06,1.17-.61,1.39-.24.09-.48.18-.72.26-.11.04-.23.06-.34.06ZM10.05,30.09c-.15,0-.3-.03-.45-.1-.23-.11-.46-.22-.69-.34-.53-.27-.73-.92-.46-1.45.27-.53.92-.73,1.45-.46.2.1.39.2.6.29.54.25.77.88.53,1.42-.18.39-.57.63-.98.63ZM25.44,27.82c-.3,0-.59-.12-.81-.37-.39-.45-.34-1.12.1-1.51.17-.14.33-.29.48-.45.42-.41,1.1-.4,1.52.02.41.42.4,1.1-.02,1.52-.18.18-.37.35-.57.52-.2.18-.46.26-.71.26ZM5.46,26.74c-.29,0-.58-.12-.79-.35-.17-.19-.34-.38-.5-.58-.38-.46-.32-1.13.14-1.51.46-.38,1.13-.32,1.51.14.14.17.29.34.44.5.4.44.37,1.12-.07,1.52-.21.19-.47.28-.72.28ZM28.88,23.29c-.16,0-.32-.04-.47-.11-.53-.26-.76-.9-.5-1.43.1-.2.19-.4.27-.6.23-.55.86-.8,1.41-.57.55.23.8.86.57,1.41-.1.24-.21.47-.32.7-.19.38-.57.61-.97.61ZM2.52,21.88c-.44,0-.85-.27-1.01-.71-.09-.24-.17-.48-.24-.73-.17-.57.15-1.17.72-1.34.57-.17,1.17.15,1.34.72.06.21.13.42.21.63.2.56-.09,1.17-.65,1.37-.12.04-.24.06-.36.06ZM30.29,17.79s-.04,0-.05,0c-.59-.03-1.05-.53-1.02-1.12.01-.22.02-.44.02-.66,0-.59.48-1.07,1.07-1.07s1.07.48,1.07,1.07c0,.26,0,.51-.02.77-.03.57-.5,1.02-1.07,1.02ZM1.72,16.25s-.04,0-.06,0c-.59-.03-1.04-.54-1.01-1.13.01-.26.04-.51.06-.76.06-.59.59-1.01,1.18-.95.59.06,1.02.59.95,1.18-.02.22-.04.44-.05.66-.03.57-.51,1.01-1.07,1.01ZM29.91,13.74c-.48,0-.92-.33-1.04-.82-.05-.22-.11-.43-.17-.64-.17-.57.16-1.16.73-1.33.57-.17,1.17.16,1.33.73.07.24.14.49.2.74.14.58-.22,1.16-.79,1.29-.08.02-.17.03-.25.03ZM3.16,10.76c-.16,0-.32-.04-.47-.11-.53-.26-.75-.9-.49-1.44.11-.23.23-.46.36-.68.29-.52.94-.7,1.46-.41.52.29.7.94.41,1.46-.11.19-.21.39-.31.58-.19.38-.57.6-.96.6ZM27.52,8.59c-.33,0-.65-.15-.87-.44-.13-.18-.27-.35-.41-.52-.37-.46-.31-1.13.15-1.51.46-.38,1.14-.31,1.51.15.16.2.32.4.47.61.35.48.25,1.15-.23,1.5-.19.14-.41.21-.63.21ZM6.64,6.26c-.3,0-.6-.13-.81-.37-.39-.45-.34-1.13.11-1.51.19-.17.39-.33.59-.49.47-.37,1.14-.29,1.51.18.37.47.29,1.14-.18,1.51-.17.14-.35.28-.51.42-.2.18-.45.26-.7.26ZM23.3,4.77c-.19,0-.38-.05-.55-.15-.19-.11-.38-.22-.58-.32-.52-.28-.72-.93-.45-1.45.28-.52.93-.72,1.45-.45.23.12.45.25.67.38.51.3.67.96.37,1.47-.2.34-.56.52-.92.52ZM11.58,3.47c-.45,0-.87-.29-1.02-.74-.18-.56.13-1.17.69-1.35.24-.08.49-.15.74-.22.57-.15,1.16.19,1.31.76.15.57-.19,1.16-.76,1.31-.21.06-.42.12-.63.19-.11.04-.22.05-.33.05ZM17.94,2.9s-.1,0-.14,0c-.22-.03-.44-.05-.66-.07-.59-.05-1.03-.57-.98-1.16.05-.59.56-1.03,1.16-.98.26.02.51.05.76.08.59.08,1,.62.92,1.21-.07.54-.53.93-1.06.93Z"/>
  </g>
  <path d="M30.3,17.07c-.59,0-1.07-.48-1.07-1.07,0-7.29-5.94-13.23-13.23-13.23-.59,0-1.07-.48-1.07-1.07s.48-1.07,1.07-1.07c8.48,0,15.38,6.9,15.38,15.38,0,.59-.48,1.07-1.07,1.07Z"/>
  <path d="M21.72,18.5h-5.72c-.59,0-1.07-.48-1.07-1.07v-5.72c0-.59.48-1.07,1.07-1.07s1.07.48,1.07,1.07v4.65h4.65c.59,0,1.07.48,1.07,1.07s-.48,1.07-1.07,1.07Z"/>
</svg>