<?xml version="1.0" encoding="UTF-8"?>
<svg id="_圖層_1" xmlns="http://www.w3.org/2000/svg" version="1.1" viewBox="0 0 32 32">
  <!-- Generator: Adobe Illustrator 29.3.1, SVG Export Plug-In . SVG Version: 2.1.0 Build 151)  -->
  <defs>
    <style>
      .st0 {
        fill: none;
        stroke: #000;
        stroke-linecap: round;
        stroke-miterlimit: 133.3;
        stroke-width: 2.1px;
      }
    </style>
  </defs>
  <path class="st0" d="M29.9,16.3v2.1c0,5.4,0,8.1-1.6,9.8-1.6,1.7-4.2,1.7-9.5,1.7h-5.5c-5.2,0-7.8,0-9.5-1.7-1.6-1.7-1.6-4.4-1.6-9.8v-2.1c0-3.2,0-4.8.7-6.1.7-1.3,2-2.1,4.7-3.8l2.8-1.7c2.8-1.7,4.2-2.6,5.7-2.6s2.9.9,5.7,2.6l2.8,1.7c2.6,1.6,3.9,2.4,4.7,3.8"/>
  <path class="st0" d="M20.2,24.3h-8.3"/>
</svg>