<?xml version="1.0" encoding="UTF-8"?>
<svg id="_圖層_1" xmlns="http://www.w3.org/2000/svg" version="1.1" viewBox="0 0 32 32">
  <!-- Generator: Adobe Illustrator 29.3.1, SVG Export Plug-In . SVG Version: 2.1.0 Build 151)  -->
  <defs>
    <style>
      .st0 {
        fill-rule: evenodd;
      }
    </style>
  </defs>
  <path class="st0" d="M22.4,2.9c.6-.6,1.5-.6,2.1,0l4.5,4.5c.6.6.6,1.5,0,2.1l-4.5,4.5c-.6.6-1.5.6-2.1,0-.6-.6-.6-1.5,0-2.1l1.9-1.9h-14.6c-3.2,0-5.8,2.6-5.8,6s-.7,1.5-1.5,1.5-1.5-.7-1.5-1.5c0-4.9,3.8-9,8.8-9h14.6l-1.9-1.9c-.6-.6-.6-1.5,0-2.1ZM29.5,14.5c.8,0,1.5.7,1.5,1.5,0,5-4.2,9-9.1,9H7.6l1.9,1.9c.6.6.6,1.5,0,2.1-.6.6-1.5.6-2.1,0l-4.5-4.5c-.6-.6-.6-1.5,0-2.1l4.5-4.5c.6-.6,1.5-.6,2.1,0,.6.6.6,1.5,0,2.1l-1.9,1.9h14.3c3.3,0,6.1-2.7,6.1-6s.7-1.5,1.5-1.5Z"/>
</svg>