<?xml version="1.0" encoding="UTF-8"?>
<svg id="_圖層_1" xmlns="http://www.w3.org/2000/svg" version="1.1" viewBox="0 0 800 800">
  <!-- Generator: Adobe Illustrator 29.3.1, SVG Export Plug-In . SVG Version: 2.1.0 Build 151)  -->
  <defs>
    <style>
      .st0 {
        isolation: isolate;
      }

      .st1 {
        fill: none;
        stroke: #c15a52;
      }

      .st1, .st2 {
        stroke-linecap: round;
        stroke-linejoin: round;
        stroke-width: 46.7px;
      }

      .st3 {
        fill: #102448;
      }

      .st2 {
        fill: #3c6694;
        stroke: #3c6694;
      }
    </style>
  </defs>
  <g>
    <path class="st3" d="M79.1,697.8c-3-.9-5.8-2.2-8.4-3.9s-5-3.7-7.2-5.9c-1.6-1.8-2.2-3.9-2-6.4l1.7-3.4c1.6-1.3,3.6-1.9,6.1-1.7l3,1-.7-37.3c-4.3,1.1-7.9,2.5-11,4.2-3,1.7-6.3,2.6-9.9,2.9l-3.4-1.7c-1.3-1.6-1.9-3.6-1.7-6.1l1.7-3.4c3.8-2.2,7.8-4.2,11.8-5.7,4-1.6,8.2-3,12.5-4.4l-1.3-44.5-21.9,1c-1.8-.2-3.4-.9-4.7-2-1.3-1.7-1.9-3.8-1.7-6.2l1.7-3.4c3.8-1.6,8-2.4,12.5-2.5s9-.2,13.5-.2v-13.5c.2-2.2,1-4.4,2.4-6.4,1.6-1.3,3.7-1.9,6.2-1.7l3.4,1.7c1.6,1.8,2.2,4,2,6.7l-.7,13.1h15.2l3.4,1.7c1.3,1.6,1.9,3.6,1.7,6.1l-1.7,3.5c-2.5,1.6-5.3,2.3-8.4,2.2s-6.3-.2-9.4-.2l1,39.8c2-.9,3.9-1.2,5.7-1l3.4,1.7c1.3,1.8,1.9,3.9,1.7,6.4l-1.7,3.4c-2.5,1.8-5.3,3-8.4,3.7l.7,56.8c-1.2,4.3-3.5,6.1-6.7,5.4l-.4.2h0ZM183.1,696l-68.6.3c-4.4-.2-6.4-3.9-6.1-11.1-.9-31.7-1.1-49.1-.6-52.3.5-3.1,1.9-4.7,4.2-4.6,2.3,0,12.6,0,30.8-.2v-20.9c-5.8,2.7-11.2,5.5-16.2,8.4-4.9,2.9-10.2,5.3-15.8,7.1l-3.4-1.7c-1.3-1.6-1.9-3.6-1.7-6.1l1.7-3.4c3.4-2.5,7-4.7,10.8-6.6,3.8-1.9,7.3-4,10.5-6.2l-24.3.3-3.4-1.7c-1.3-1.8-1.9-3.9-1.7-6.4l1.7-3.4c4.9-1.8,10.5-2.4,16.5-1.7-.9-2-1.2-4-1-6.1l1.7-3.5c1.6-1.3,3.6-1.9,6.1-1.7l3.4,1.7,6.1,9.3,8.8-.3v-17c-4.9.5-9,1.2-12.1,2.2-3.1,1-6.4,1.9-9.8,2.5l-3.4-1.7c-1.3-1.8-1.9-3.9-1.7-6.4l1.7-3.4c9.2-3.6,18.7-6.1,28.5-7.4l29.3-4,3.4,1.7c1.3,1.6,1.9,3.6,1.7,6.1l-1.7,3.4c-3.4,1.6-7.1,2.6-11,3.2-4,.6-7.9,1.1-11.7,1.5v19.4h9.9c.7-4,2-7.9,4-11.6,1.8-1.6,4-2.1,6.7-1.7l3.4,1.7c1.3,1.6,1.9,3.7,1.7,6.2l-2,5.4,10.1-.7,3.4,1.7c1.3,1.6,1.9,3.6,1.7,6.1l-1.7,3.4c-2.9,1.6-6.2,2.4-9.9,2.5s-7.4.2-11,.2c4.3,2,8.5,4,12.6,6.1,4.2,2,8.3,4,12.3,6.1,1.3,1.6,1.9,3.6,1.7,6.1l-1.7,3.4c-1.8,1.3-3.9,2-6.4,2-5.6-2.7-11.3-5.3-17-7.9-5.7-2.6-11.6-4.9-17.5-6.9v20.9c5.5.5,11,.7,16.5.8s9.7.5,12.6,1.2c2.9.7,4.6,2.3,5.1,4.9.5,2.6,1,12.1,1.6,28.7.6,16.5.6,26.1.3,28.8-.4,2.7-3.3,3.8-8.8,3.4h-.3ZM143.2,641.3l-21.9.3-.3,13.5h22.2v-13.8ZM144.9,682.5l-.3-13.7-22.9-.3v14h23.3,0ZM178.4,656.5l-1-13.8-21.1-.7,1,14.5h21.1ZM178.4,681.8l.3-11.6h-21.1l.3,12.3,20.4-.7h.1Z"/>
    <path class="st3" d="M286.2,692.1c-3.8-4.5-6.8-7.9-8.9-10.3-2.1-2.4-3.2-5.1-3.2-8.3l1.7-3.4c1.6-1.3,3.6-1.9,6.1-1.7l4.7,2.7c2-9.1,3.7-18.1,4.9-27.1,1.2-9,2.3-18,3.2-27h-21.9c-2.2,12.4-5.4,24.6-9.5,36.7-4.1,12.1-10.6,23-19.6,32.6-1.6,1.3-3.6,1.9-6.1,1.7l-3.4-1.7c-1.3-1.8-1.9-3.9-1.7-6.4,11.2-13.6,18.9-28.7,22.9-45.3,4-16.6,6.9-33.4,8.6-50.2l-28.5.3-3.4-1.7c-1.3-1.8-1.9-4-1.7-6.6l1.7-3.4c1.6-1.3,3.5-2,5.7-2h26.1c-.6-3.8-.9-6.7-1-8.7s-.3-4.7-.5-8.3c.2-1.8,1-3.4,2.2-4.7,1.6-1.3,3.6-1.9,6.1-1.7l3.4,1.7c1.6,4,2.3,7.6,2.2,10.7-.1,3.1.2,6.8.8,11h26c2.9-.2,5.5.5,7.8,2,1.3,1.6,1.9,3.6,1.7,6.1l-1.7,3.5c-2,1.6-4.6,2.1-7.8,1.7h-26l-2,19.6c19.1-.2,29.8,0,32,.5,2.2.6,2.8,3.2,1.7,7.9-1.8,13-3.6,26.2-5.4,39.4s-4.7,26.1-8.8,38.7c-1.8,3.9-4.6,4.5-8.4,1.7h0ZM382.8,695.1l-3.7-2c-3.8-7.4-8.3-14.6-13.5-21.5s-9.8-14-13.8-21.2c-4.6,7.6-10.1,14.5-16.5,20.6s-12.6,12.4-18.7,19c-2.5,2.5-5.4,3.7-8.8,3.7l-3.4-1.7c-1.3-1.8-1.9-3.9-1.7-6.4l1.7-3.4c7.4-6.7,14.7-13.6,21.7-20.6,7.1-7,12.6-15,16.7-24-2.9-5.4-5.6-10.3-8.1-14.7s-5.2-8.6-8.1-12.6c-1.6,4.5-3.1,9-4.7,13.5-1.6,1.3-3.6,1.9-6.1,1.7l-3.4-1.7c-1.3-1.8-2-3.8-2-6.1,4.5-11,8.2-22.3,11.1-33.8s4.7-22.4,5.4-32.8c1.6-1.3,3.6-1.9,6.1-1.7l3.4,1.7c1.6,2.5,2.1,5.4,1.7,8.8l-1,13.8,45-1.3,3.4,1.7c1.3,1.6,1.9,3.7,1.7,6.2l-1.7,3.4c-2.9,1.8-6.3,2.5-10.1,2-1.6,8.8-3.9,17.3-6.9,25.6s-6.3,16.6-9.9,24.9c2.5,4,4.9,8.2,7.2,12.5,2.4,4.3,5.2,8.5,8.6,12.6s6.5,8.6,9.3,13.4c2.8,4.8,5.1,9.9,6.9,15.3l-1.7,3.4c-1.6,1.3-3.6,1.9-6.1,1.7h0ZM350.4,621.8c2.5-6.1,4.7-12,6.7-17.9,2-5.8,3.7-11.8,5.1-17.9-5.6.5-10.6.7-14.9.8s-8.6.2-12.9.2l-1.3,6.4c2.7,4.9,5.4,9.8,8.3,14.5,2.8,4.7,5.8,9.3,9.1,13.8h-.1Z"/>
    <path class="st3" d="M435.1,602.2c-1.8-.2-3.4-.9-4.7-2-1.3-1.6-1.9-3.6-1.7-6.1l1.7-3.4c2.9-1.1,5.8-2.3,8.6-3.5,2.8-1.2,5.6-2.6,8.3-4l-6.7-5.7c-1.3-1.8-1.9-3.9-1.7-6.4l1.7-3.4c1.6-1.3,3.6-1.9,6.1-1.7,4.7,2.5,9.7,5.7,15,9.8l15.8-11.1-14.2.3c-1.8-.2-3.4-.9-4.9-2-1.3-1.6-1.9-3.6-1.7-6.1l1.7-3.4c3.5-1.8,7.2-2.5,11.3-2h29.3c4.3-.6,7.5,0,9.6,1.6s7.4,5,15.7,10.2l10.1-11.1,4.7-.3,3.4,1.7c1.3,1.6,1.9,3.6,1.7,6.1l-1.7,3.4-6.1,7.4,7.1,3.4,9.3-13.1c1.8-1.6,4-2.1,6.7-1.7l3.4,1.7c1.3,1.6,1.9,3.6,1.7,6.1l-8.8,13.1c3.1,1.1,6.3,2.3,9.4,3.6,3.1,1.3,6.2,2.6,9.1,4,1.3,1.6,1.9,3.6,1.7,6.1l-1.7,3.4c-1.8,1.6-4,2.1-6.7,1.7-11.7-3.8-23-8.7-33.8-14.7s-21.8-11.7-32.8-17.1c-10.8,6.3-21.4,12.9-31.9,19.8-10.5,6.9-21.8,12.2-34,15.8v-.4h0ZM464.3,695.8c-2.9-.7-5.6-2-8-3.9s-4.7-3.9-7-5.9c-2.5-2.2-3.6-4.9-3.4-8.1l1.7-3.4c1.6-1.3,3.6-1.9,6.1-1.7l9.9,7.4c1.8-3.6,3.3-6.9,4.6-9.9,1.2-3,1.9-6.6,1.9-10.9h-21.4c-5.2.6-7.8-.4-7.9-2.9s.6-7.6,2-15.3c1.5-7.7,2.4-13.1,3-16.1s1.7-4.7,3.5-5.1c1.9-.3,9.8.2,23.9,1.5l1.3-12.1h-21.4l-3.4-1.7c-1.3-1.6-1.9-3.6-1.7-6.1l1.7-3.4,4.4-2h27.5c5.2-.2,7.8.6,7.9,2.5s-.4,6.8-1.5,14.7-1.9,13.3-2.3,16.3-1.7,4.5-3.9,4.6c-2.2,0-10.3,0-24.4-.7l-2.4,12.5c14.7,0,23.7.2,27,.7s4.1,3.1,2.5,8.1c-.9,7.2-2.3,13.7-4.2,19.6-1.9,5.9-4.8,11.9-8.6,18-1.1,3.8-3.6,4.8-7.4,3v.3h0ZM501.3,697.5c-1.8-.2-3.4-.9-4.7-2-1.6-1.8-2.2-3.9-2-6.4l1.7-3.4c3.4-1.1,6.7-2.4,9.9-3.9,3.3-1.5,6.5-3.2,9.6-5.2l-8.1-6.7c-1.6-1.8-2.2-4-2-6.6l1.7-3.4c1.6-1.3,3.6-1.9,6.1-1.7l3.4,1.7,10.5,6.9c3.1-4.4,5.6-8.7,7.4-13h-29l-3.4-1.7c-1.3-1.8-1.9-3.9-1.7-6.4l1.7-3.4,3.4-1.7c25.6-.2,40.2,0,43.8.4,3.6.5,4.5,2.9,2.8,7.2s-3.5,8.2-5.4,11.7-4.5,8.1-7.8,13.8c3.8,2,7.7,3.8,11.5,5.4,3.9,1.6,7.8,3.1,11.9,4.7,1.3,1.6,1.9,3.6,1.7,6.1l-1.7,3.4c-2,1.6-4.4,2.1-7.1,1.7-4.7-1.3-9.3-3.1-13.7-5.2-4.4-2.1-8.8-4.3-13.1-6.6-6.1,4.5-11.1,7.8-15,9.8-3.9,2-8,3.5-12.3,4.4h-.1ZM501.3,637l-3.4-1.7c-1.3-1.6-1.9-3.6-1.7-6.1,2-3.4,3.6-7,4.7-10.8s1.7-8.8,1.9-15c-.7-4.6.2-7.1,2.6-7.6,2.4-.4,14.6-.6,36.7-.3,4,0,5.4,2.1,4.2,6.2-1.2,4.2-1.5,7.9-.9,11.3.6,3.4,2.6,6,5.8,7.8,3.3,1.8,7.1,3.3,11.6,4.4,1.3,1.6,1.9,3.6,1.7,6.1l-1.7,3.4c-2.2,1.6-4.9,2.2-8.1,2-2.9-.4-5.8-1.2-8.5-2.4-2.8-1.1-5.3-2.9-7.7-5.4s-4.1-5.4-5.2-8.8c-1.1-3.4-1.6-7.1-1.3-11.1l-16.9.3c0,4.7-.6,9.2-1.7,13.5-1.1,4.3-2.9,8.2-5.4,11.8-1.8,1.8-4,2.6-6.7,2.4h0Z"/>
    <path class="st3" d="M634.6,619.8c-1.8-.2-3.3-.9-4.6-2-1.3-1.5-1.9-3.4-1.7-5.9l1.7-3.2,3.2-1.7,35.4-1-1.7-31.7-30.3,1.7c-1.8-.2-3.4-.9-4.7-2-1.2-1.5-1.7-3.4-1.5-5.9l1.5-3.2c2.9-1.3,6-2.1,9.3-2.2,3.3,0,18-.5,44.2-1.2l-.3-9.8c.2-1.8.9-3.3,2-4.6,1.6-1.3,3.5-1.9,5.9-1.7l3.4,1.7c1.7,4.4,2.3,9.2,1.9,14.3l36.2-.7c3.4,0,6.3.8,8.9,2.4,1.3,1.6,1.9,3.5,1.7,5.9l-1.7,3.4c-2.4,1.5-5.1,2.1-8.1,1.9l-17-.7-1.7,32h36.4l3.5,2c1.3,1.6,1.9,3.5,1.7,5.9l-1.7,3.4c-1.5,1-3.1,1.6-4.9,1.9l-117,1h0ZM662.5,695.1c-2.7.7-4.3-.2-4.8-2.5-.5-2.4-1.1-10.2-1.7-23.4-.6-13.3-1.3-25-1.9-35.2.2-1.8,1-3.3,2.4-4.6s3.3-1.8,5.8-1.6c46.4.5,71,.8,73.7,1s4,1.7,4,4.4-.3,12.3-1,28.8-1.3,26.2-1.9,28.9c-.6,2.8-3.6,4.3-9.1,4.6l-65.6-.3h0ZM725.4,653.6l.7-12.5-58.8-.7.7,14.2,57.5-1h-.1ZM724.7,682.6l.7-15.7-57.1.7,1.3,15.3,55.1-.3ZM705.4,573.9l-25.6.3,1.7,31.4h22.2l1.7-31.7h0Z"/>
  </g>
  <g class="st0">
    <g class="st0">
      <g class="st0">
        <path class="st3" d="M125.4,764v-48h18.1c3.2,0,5.6.2,7.3.5,2.4.4,4.3,1.1,5.9,2.2,1.6,1.1,2.9,2.6,3.9,4.6s1.5,4.2,1.5,6.6c0,4.1-1.3,7.5-3.9,10.4-2.6,2.8-7.3,4.2-14.1,4.2h-12.3v19.5h-6.4,0ZM131.7,738.8h12.4c4.1,0,7-.8,8.7-2.3s2.6-3.7,2.6-6.5-.5-3.7-1.5-5.2c-1-1.4-2.4-2.4-4-2.8-1.1-.3-3-.4-5.9-.4h-12.3v17.2Z"/>
        <path class="st3" d="M169.2,764v-48h5.9v48h-5.9Z"/>
        <path class="st3" d="M207,759.7c-2.2,1.9-4.3,3.2-6.3,3.9-2,.8-4.2,1.1-6.5,1.1-3.8,0-6.8-.9-8.8-2.8-2.1-1.9-3.1-4.3-3.1-7.2s.4-3.3,1.2-4.7,1.8-2.5,3-3.4c1.3-.9,2.7-1.5,4.2-1.9,1.2-.3,2.9-.6,5.2-.9,4.8-.6,8.3-1.2,10.5-2v-1.5c0-2.4-.6-4.1-1.7-5.1-1.5-1.3-3.7-2-6.7-2s-4.8.5-6.1,1.5-2.3,2.7-2.9,5.2l-5.8-.8c.5-2.5,1.4-4.5,2.6-6s2.9-2.7,5.2-3.5,4.9-1.2,7.9-1.2,5.4.3,7.2,1c1.9.7,3.2,1.6,4.1,2.6.9,1.1,1.5,2.4,1.8,4,.2,1,.3,2.8.3,5.4v7.9c0,5.5.1,9,.4,10.4.3,1.5.7,2.8,1.5,4.2h-6.2c-.6-1.2-1-2.7-1.2-4.3h.2ZM206.5,746.5c-2.1.9-5.4,1.6-9.6,2.2-2.4.3-4.1.7-5.1,1.2-1,.4-1.8,1.1-2.3,1.9-.5.8-.8,1.8-.8,2.8,0,1.6.6,2.9,1.8,3.9s2.9,1.6,5.2,1.6,4.3-.5,6.1-1.5,3.1-2.4,3.9-4.1c.6-1.3,1-3.3,1-5.9v-2.2h-.2Z"/>
        <path class="st3" d="M221.3,777.4l-.7-5.5c1.3.3,2.4.5,3.4.5s2.4-.2,3.1-.7c.8-.4,1.4-1,1.9-1.8.4-.6,1-2.1,1.8-4.4.1-.3.3-.8.5-1.4l-13.2-34.9h6.4l7.2,20.1c.9,2.6,1.8,5.2,2.5,8.1.7-2.7,1.5-5.4,2.4-7.9l7.4-20.3h5.9l-13.2,35.4c-1.4,3.8-2.5,6.5-3.3,7.9-1,1.9-2.2,3.4-3.6,4.3-1.4.9-3,1.4-4.8,1.4s-2.4-.2-3.8-.7h.1Z"/>
        <path class="st3" d="M274.5,764v-48h18.1c3.2,0,5.6.2,7.3.5,2.4.4,4.3,1.1,5.9,2.2,1.6,1.1,2.9,2.6,3.9,4.6s1.5,4.2,1.5,6.6c0,4.1-1.3,7.5-3.9,10.4-2.6,2.8-7.3,4.2-14.1,4.2h-12.3v19.5h-6.4ZM280.9,738.8h12.4c4.1,0,7-.8,8.7-2.3s2.6-3.7,2.6-6.5-.5-3.7-1.5-5.2c-1-1.4-2.4-2.4-4-2.8-1.1-.3-3-.4-5.9-.4h-12.3v17.2h0Z"/>
        <path class="st3" d="M318.5,764v-34.8h5.3v5.3c1.4-2.5,2.6-4.1,3.8-4.9,1.1-.8,2.4-1.2,3.8-1.2,2,0,4,.6,6.1,1.9l-2,5.5c-1.4-.9-2.9-1.3-4.3-1.3s-2.4.4-3.5,1.2c-1,.8-1.8,1.9-2.2,3.2-.7,2.1-1,4.4-1,6.9v18.2h-6Z"/>
        <path class="st3" d="M338.7,746.6c0-6.4,1.8-11.2,5.4-14.3,3-2.6,6.6-3.9,10.9-3.9s8.7,1.6,11.7,4.7c3,3.1,4.6,7.5,4.6,13s-.7,8-2,10.6-3.3,4.6-5.9,6-5.4,2.1-8.4,2.1c-4.9,0-8.8-1.6-11.8-4.7-3-3.1-4.5-7.6-4.5-13.5h0ZM344.8,746.6c0,4.5,1,7.8,2.9,10s4.4,3.3,7.3,3.3,5.4-1.1,7.3-3.3,2.9-5.6,2.9-10.2-1-7.6-2.9-9.8c-2-2.2-4.4-3.3-7.3-3.3s-5.4,1.1-7.3,3.3-2.9,5.5-2.9,10Z"/>
        <path class="st3" d="M378.2,764v-34.8h5.3v4.9c2.6-3.8,6.2-5.7,11.1-5.7s4,.4,5.8,1.1c1.8.8,3.1,1.7,3.9,3,.9,1.2,1.5,2.7,1.8,4.4.2,1.1.3,3,.3,5.7v21.4h-5.9v-21.2c0-2.4-.2-4.2-.7-5.4s-1.3-2.1-2.4-2.9c-1.2-.7-2.5-1.1-4.1-1.1-2.5,0-4.7.8-6.5,2.4s-2.7,4.6-2.7,9.1v19h-5.9,0Z"/>
        <path class="st3" d="M438.3,764v-5.1c-2.7,3.9-6.4,5.9-11,5.9s-4-.4-5.8-1.2-3.1-1.8-4-3-1.5-2.6-1.8-4.4c-.2-1.2-.4-3-.4-5.5v-21.6h5.9v19.3c0,3.1.1,5.2.4,6.2.4,1.6,1.2,2.8,2.4,3.7s2.7,1.3,4.5,1.3,3.4-.5,5-1.4,2.6-2.1,3.3-3.7c.6-1.6,1-3.8,1-6.8v-18.6h5.9v34.8h-5.4Z"/>
        <path class="st3" d="M452.8,764v-34.8h5.3v4.9c2.6-3.8,6.2-5.7,11.1-5.7s4,.4,5.8,1.1c1.8.8,3.1,1.7,3.9,3,.9,1.2,1.5,2.7,1.8,4.4.2,1.1.3,3,.3,5.7v21.4h-5.9v-21.2c0-2.4-.2-4.2-.7-5.4s-1.3-2.1-2.4-2.9c-1.2-.7-2.5-1.1-4.1-1.1-2.5,0-4.7.8-6.5,2.4-1.8,1.6-2.7,4.6-2.7,9.1v19h-5.9,0Z"/>
        <path class="st3" d="M512.9,751.3l5.8.8c-.6,4-2.3,7.1-4.9,9.4-2.6,2.3-5.8,3.4-9.6,3.4s-8.6-1.6-11.5-4.7c-2.9-3.1-4.3-7.6-4.3-13.4s.6-7,1.9-9.9c1.2-2.8,3.1-4.9,5.7-6.3,2.5-1.4,5.3-2.1,8.3-2.1s6.9,1,9.3,2.9c2.4,1.9,3.9,4.6,4.6,8.1l-5.7.9c-.5-2.3-1.5-4.1-2.9-5.3s-3.1-1.8-5-1.8c-3,0-5.4,1.1-7.2,3.2-1.9,2.1-2.8,5.5-2.8,10.1s.9,8.1,2.7,10.2c1.8,2.1,4.1,3.2,7,3.2s4.2-.7,5.8-2.1,2.5-3.6,2.9-6.6h0Z"/>
        <path class="st3" d="M523.8,722.8v-6.8h5.9v6.8h-5.9ZM523.8,764v-34.8h5.9v34.8h-5.9Z"/>
        <path class="st3" d="M561.3,759.7c-2.2,1.9-4.3,3.2-6.3,3.9-2,.8-4.2,1.1-6.5,1.1-3.8,0-6.8-.9-8.8-2.8-2.1-1.9-3.1-4.3-3.1-7.2s.4-3.3,1.2-4.7,1.8-2.5,3-3.4c1.3-.9,2.7-1.5,4.2-1.9,1.2-.3,2.9-.6,5.2-.9,4.8-.6,8.3-1.2,10.5-2v-1.5c0-2.4-.6-4.1-1.7-5.1-1.5-1.3-3.7-2-6.7-2s-4.8.5-6.1,1.5-2.3,2.7-2.9,5.2l-5.8-.8c.5-2.5,1.4-4.5,2.6-6s2.9-2.7,5.2-3.5,4.9-1.2,7.9-1.2,5.4.3,7.2,1c1.9.7,3.2,1.6,4.1,2.6s1.5,2.4,1.8,4c.2,1,.3,2.8.3,5.4v7.9c0,5.5,0,9,.4,10.4.3,1.5.7,2.8,1.5,4.2h-6.2c-.6-1.2-1-2.7-1.2-4.3h.2ZM560.8,746.5c-2.1.9-5.4,1.6-9.6,2.2-2.4.3-4.1.7-5.1,1.2-1,.4-1.8,1.1-2.3,1.9-.5.8-.8,1.8-.8,2.8,0,1.6.6,2.9,1.8,3.9s2.9,1.6,5.2,1.6,4.3-.5,6.1-1.5,3.1-2.4,3.9-4.1c.6-1.3,1-3.3,1-5.9v-2.2h-.2Z"/>
        <path class="st3" d="M588.8,758.7l.9,5.2c-1.7.3-3.1.5-4.5.5-2.1,0-3.8-.3-5-1s-2-1.6-2.5-2.7c-.5-1.1-.7-3.4-.7-7v-20h-4.3v-4.6h4.3v-8.6l5.9-3.5v12.2h5.9v4.6h-5.9v20.3c0,1.7,0,2.8.3,3.2s.5.9,1,1.1c.5.3,1.1.4,2,.4s1.5,0,2.6-.2h0Z"/>
        <path class="st3" d="M594.6,722.8v-6.8h5.9v6.8h-5.9ZM594.6,764v-34.8h5.9v34.8h-5.9Z"/>
        <path class="st3" d="M607.3,746.6c0-6.4,1.8-11.2,5.4-14.3,3-2.6,6.6-3.9,10.9-3.9s8.7,1.6,11.7,4.7c3,3.1,4.6,7.5,4.6,13s-.7,8-2,10.6-3.3,4.6-5.9,6c-2.6,1.4-5.4,2.1-8.4,2.1-4.9,0-8.8-1.6-11.8-4.7-3-3.1-4.5-7.6-4.5-13.5h0ZM613.4,746.6c0,4.5,1,7.8,2.9,10s4.4,3.3,7.3,3.3,5.4-1.1,7.3-3.3c1.9-2.2,2.9-5.6,2.9-10.2s-1-7.6-2.9-9.8-4.4-3.3-7.3-3.3-5.4,1.1-7.3,3.3c-1.9,2.2-2.9,5.5-2.9,10Z"/>
        <path class="st3" d="M646.8,764v-34.8h5.3v4.9c2.6-3.8,6.2-5.7,11.1-5.7s4,.4,5.8,1.1c1.8.8,3.1,1.7,3.9,3,.9,1.2,1.5,2.7,1.8,4.4.2,1.1.3,3,.3,5.7v21.4h-5.9v-21.2c0-2.4-.2-4.2-.7-5.4s-1.3-2.1-2.4-2.9c-1.2-.7-2.5-1.1-4.1-1.1-2.5,0-4.7.8-6.5,2.4-1.8,1.6-2.7,4.6-2.7,9.1v19h-5.9,0Z"/>
      </g>
    </g>
  </g>
  <path class="st2" d="M263.8,195.7l163.5-127.2v418l-163.5-122h-114.2c-15.6,0-31.2-13-31.2-31.2v-109c0-18.2,15.6-31.2,31.2-31.2l114.2,2.6Z"/>
  <path class="st1" d="M515.6,195.7c23.4,23.4,33.7,51.9,33.7,85.7s-13,64.9-33.7,85.7"/>
  <path class="st1" d="M596.1,123c38.9,38.9,62.3,96.1,62.3,161s-23.4,119.4-62.3,155.8"/>
</svg>