<?xml version="1.0" encoding="UTF-8"?>
<svg id="_圖層_1" data-name="圖層_1" xmlns="http://www.w3.org/2000/svg" version="1.1" viewBox="0 0 32 32">
  <!-- Generator: Adobe Illustrator 29.3.1, SVG Export Plug-In . SVG Version: 2.1.0 Build 151)  -->
  <defs>
    <style>
      .st0 {
        fill-rule: evenodd;
      }
    </style>
  </defs>
  <path class="st0" d="M13.4,1.2h5.1c.3,0,.6,0,.9,0,1.1.2,2,.8,2.5,1.8.1.2.2.5.3.8l.2.5c0,0,0,.1,0,.1.3.7,1,1.2,1.7,1.3,0,0,0,0,.1,0h4.6c.6,0,1.1.5,1.1,1.1s-.5,1.1-1.1,1.1H3.1c-.6,0-1.1-.5-1.1-1.1s.5-1.1,1.1-1.1h4.6c0,0,.1,0,.1,0,.8,0,1.5-.5,1.7-1.3,0,0,0,0,0-.1l.2-.5c.1-.3.2-.6.3-.8.5-1,1.4-1.6,2.5-1.8.3,0,.6,0,.9,0ZM11.4,5.7c0-.2.1-.3.2-.5,0,0,0-.1,0-.2l.2-.5c.1-.4.2-.5.2-.6.2-.3.5-.5.8-.6,0,0,.2,0,.6,0h5c.4,0,.5,0,.6,0,.4,0,.7.3.8.6,0,0,0,.1.2.6l.2.5v.2c.1.2.2.3.3.5h-9.1Z"/>
  <path d="M6.7,10.6c0-.6-.6-1.1-1.2-1.1-.6,0-1.1.6-1.1,1.2l.7,10.6c.1,2,.2,3.5.5,4.8.3,1.3.7,2.4,1.6,3.2.9.8,2,1.2,3.3,1.4,1.3.2,2.8.2,4.8.2h1.3c2,0,3.5,0,4.8-.2,1.3-.2,2.4-.5,3.3-1.4.9-.8,1.3-1.9,1.6-3.2.2-1.2.4-2.8.5-4.8l.7-10.6c0-.6-.4-1.2-1.1-1.2-.6,0-1.2.4-1.2,1.1l-.7,10.5c-.1,2.1-.2,3.5-.4,4.6-.2,1-.5,1.6-.9,2-.4.4-1,.6-2,.8-1.1.1-2.5.1-4.6.1h-1.2c-2.1,0-3.5,0-4.6-.1-1.1-.1-1.6-.4-2-.8-.4-.4-.7-.9-.9-2-.2-1.1-.3-2.5-.4-4.6l-.7-10.5Z"/>
  <path d="M12.1,13.3c.6,0,1.2.4,1.2,1l.8,7.6c0,.6-.4,1.2-1,1.2-.6,0-1.2-.4-1.2-1l-.8-7.6c0-.6.4-1.2,1-1.2Z"/>
  <path d="M19.9,13.3c.6,0,1.1.6,1,1.2l-.8,7.6c0,.6-.6,1.1-1.2,1-.6,0-1.1-.6-1-1.2l.8-7.6c0-.6.6-1.1,1.2-1Z"/>
</svg>