<?xml version="1.0" encoding="UTF-8"?>
<svg id="_圖層_1" data-name="圖層 1" xmlns="http://www.w3.org/2000/svg" viewBox="0 0 32 32">
  <defs>
    <style>
      .cls-1 {
        fill: none;
        stroke: #000;
        stroke-miterlimit: 10;
        stroke-width: 1.41px;
      }
    </style>
  </defs>
  <g>
    <path class="cls-1" d="M28.07,12.57c.3-.17.69-.39.83-.46.24-.14,1.11-.69,1.43-.21.18.28-.17,1.08-.75,1.9-.52.76-1.72,2.32-1.79,2.63s.27,1.53.37,2.01.42,1.63.28,2.07c-.14.45-.83,1.66-2.6,1.64-1.41-.03-1.81-.44-1.86-.69-.04-.18-.14-.79-.14-.79,0,0-1.15.72-1.7,1-.55.27-2.01,1.01-2.01,1.01,0,0,.28,1.29.32,1.81.04.53.21,1.28-.07,1.77-.24.46-1.03,1.22-2.85,1.21-1.43-.01-1.8-.45-2.02-.73-.22-.27-.27-1.56-.27-1.83,0-.28-.06-1.24-.06-1.24,0,0-1.94-.1-3.11-.18-1.05-.07-2.46-.24-2.46-.24,0,0,.06.56.1.97.06.37.06,1.12-.32,1.5-.51.49-1.83.53-2.54.46-.73-.07-1.74-.45-2.04-1.11s.08-1.52.25-2.01c.14-.45.38-1.07.3-1.25-.1-.18-.98-.41-2.25-1.69-1.28-1.27-2.94-5.69.79-8.76,1.21-1,2.76-1.32,4.29-1.31"/>
    <path class="cls-1" d="M16.46,4.56c-3.37.15-5.9,1.82-7.16,3.64-.75,1.09-1.13,1.87-1.13,1.87,0,0,1.16.03,2.21.6,1.21.65,2.61,1.35,3.54,4.39.69,2.3.96,4.48,2.77,4.97,2.04.54,6.81.27,9.1-1.94,2.28-2.21,2.72-3.88,2.15-6.06s-3.19-6.06-6.81-7.09c-1.57-.44-3.13-.44-4.67-.38Z"/>
    <path d="M27.52,10.86c-.1-.24-.31-.6-.31-.6,0,0-.02.5-.06.76-.07.43-.3,1.31-.44,1.18-.24-.23-1.39-1.67-1.93-2.48-.41-.61-1.84-2.2-1.87-2.72-.02-.26.31-1.13.31-1.13,0,0-.3-.17-.57-.32-.21-.12-.52-.25-.52-.25,0,0-.19,1.19-.39,1.41-.18.2-1.29.63-2.15.95-1.04.39-2.04.9-2.42.97-.33.06-2.2-.34-2.9-.48-.89-.17-2.22-.55-2.53-.77-.36-.26-.74-.91-.74-.91,0,0-.22.15-.43.32-.21.17-.49.5-.49.5,0,0,.56.56.59.77.04.29-.31.68-.6,1.06-.17.23-.67,1.17-.67,1.17,0,0,.23.02.52.15.3.14.58.28.58.28,0,0,.72-1.67,1.19-1.82.4-.13,1.52.24,2.34.41,1.16.24,2.33.45,2.58.77.26.32.5,1.62.73,2.71.26,1.2.92,4.3.77,4.53-.15.24-1.38.15-2.08.07-.59-.07-1.55-.43-1.55-.43,0,0,.14.51.19.65.07.2.28.74.28.74,0,0,1.37.6,5.43.23s6.06-3.14,6.63-4.36c.76-1.64.86-2.51.86-2.51,0,0-.22-.6-.32-.84h0ZM23.82,16.16c-1.03.65-3.68,1.33-4.16,1.07-.38-.21-.95-3.37-1.23-4.79-.17-.9-.59-2.28-.34-2.71.17-.29,1.16-.72,1.89-1.06.69-.32,1.69-.76,1.98-.72.41.05,1.29,1.48,2.18,2.71s1.86,2.5,1.87,2.95c.02.45-1.14,1.89-2.19,2.56h0Z"/>
  </g>
  <ellipse cx="5.87" cy="15.03" rx=".81" ry=".97"/>
  <ellipse cx="9.15" cy="15.03" rx=".81" ry=".97"/>
</svg>