<?xml version="1.0" encoding="UTF-8"?>
<svg id="_圖層_1" xmlns="http://www.w3.org/2000/svg" version="1.1" viewBox="0 0 32 32">
  <!-- Generator: Adobe Illustrator 29.3.1, SVG Export Plug-In . SVG Version: 2.1.0 Build 151)  -->
  <defs>
    <style>
      .st0 {
        fill: #efeded;
      }

      .st1 {
        fill: #efefef;
      }

      .st2 {
        fill: #efedee;
      }

      .st3 {
        fill: #42618e;
      }

      .st4 {
        fill: #dd3358;
      }
    </style>
  </defs>
  <path class="st3" d="M16,5.9v7.5c0,.9,0,1.7,0,2.6v.8H.9v-8.5c0-1.3,1.1-2.4,2.5-2.4h12.7Z"/>
  <g>
    <rect class="st2" x=".9" y="21.2" width="30.2" height="2.6"/>
    <path class="st4" d="M31.1,23.8c0,1.3-1.1,2.3-2.5,2.3H3.3c-1.3,0-2.4-1-2.5-2.3h30.2Z"/>
    <rect class="st4" x=".9" y="18.6" width="30.2" height="2.5"/>
    <polygon class="st0" points="31.1 16 31.1 18.6 .9 18.6 .9 16.8 16 16.8 16 16 31.1 16"/>
    <path class="st1" d="M31.1,8.3h-15.1v-2.4h12.6c1.3,0,2.4,1.1,2.5,2.4Z"/>
    <rect class="st4" x="16" y="8.3" width="15.1" height="2.6"/>
    <path class="st4" d="M31.1,13.4v2.6h-15.1c0-.9,0-1.7,0-2.6h15.1Z"/>
    <rect class="st1" x="16" y="10.9" width="15.1" height="2.5"/>
    <g>
      <g>
        <path class="st1" d="M9.8,7.3c-.1,0-.3.5-.4.6,0,0-.7.1-.7.2,0,.1.4.5.4.6,0,.1-.1.7,0,.7,0,0,.6-.2.7-.2s.6.3.7.2c0,0,0-.6,0-.7,0-.1.5-.5.4-.6,0-.1-.6-.1-.7-.2,0,0-.3-.6-.4-.6h0Z"/>
        <path class="st1" d="M6.6,7.3c-.1,0-.3.5-.4.6,0,0-.7.1-.7.2,0,.1.4.5.4.6,0,.1-.1.7,0,.7,0,0,.6-.2.7-.2s.6.3.7.2c0,0,0-.6,0-.7,0-.1.5-.5.4-.6,0-.1-.6-.1-.7-.2,0,0-.3-.6-.4-.6h0Z"/>
        <path class="st1" d="M13,7.3c-.1,0-.3.5-.4.6,0,0-.7.1-.7.2,0,.1.4.5.4.6,0,.1-.1.7,0,.7,0,0,.6-.2.7-.2s.6.3.7.2c0,0,0-.6,0-.7,0-.1.5-.5.4-.6,0-.1-.6-.1-.7-.2,0,0-.3-.6-.4-.6h0Z"/>
        <path class="st1" d="M3.4,7.3c-.1,0-.3.5-.4.6,0,0-.7.1-.7.2,0,.1.4.5.4.6,0,.1-.1.7,0,.7,0,0,.6-.2.7-.2s.6.3.7.2c0,0,0-.6,0-.7,0-.1.5-.5.4-.6,0-.1-.6-.1-.7-.2,0,0-.3-.6-.4-.6h0Z"/>
      </g>
      <g>
        <path class="st1" d="M9.8,10.4c-.1,0-.3.5-.4.6,0,0-.7.1-.7.2,0,.1.4.5.4.6,0,.1-.1.7,0,.7,0,0,.6-.2.7-.2s.6.3.7.2c0,0,0-.6,0-.7,0-.1.5-.5.4-.6,0-.1-.6-.1-.7-.2,0,0-.3-.6-.4-.6h0Z"/>
        <path class="st1" d="M6.6,10.4c-.1,0-.3.5-.4.6,0,0-.7.1-.7.2,0,.1.4.5.4.6,0,.1-.1.7,0,.7,0,0,.6-.2.7-.2s.6.3.7.2c0,0,0-.6,0-.7,0-.1.5-.5.4-.6,0-.1-.6-.1-.7-.2,0,0-.3-.6-.4-.6h0Z"/>
        <path class="st1" d="M13,10.4c-.1,0-.3.5-.4.6,0,0-.7.1-.7.2,0,.1.4.5.4.6,0,.1-.1.7,0,.7,0,0,.6-.2.7-.2s.6.3.7.2c0,0,0-.6,0-.7,0-.1.5-.5.4-.6,0-.1-.6-.1-.7-.2,0,0-.3-.6-.4-.6h0Z"/>
        <path class="st1" d="M3.4,10.4c-.1,0-.3.5-.4.6,0,0-.7.1-.7.2,0,.1.4.5.4.6,0,.1-.1.7,0,.7,0,0,.6-.2.7-.2s.6.3.7.2c0,0,0-.6,0-.7,0-.1.5-.5.4-.6,0-.1-.6-.1-.7-.2,0,0-.3-.6-.4-.6h0Z"/>
      </g>
      <g>
        <path class="st1" d="M9.8,13.5c-.1,0-.3.5-.4.6,0,0-.7.1-.7.2,0,.1.4.5.4.6,0,.1-.1.7,0,.7,0,0,.6-.2.7-.2s.6.3.7.2c0,0,0-.6,0-.7,0-.1.5-.5.4-.6,0-.1-.6-.1-.7-.2,0,0-.3-.6-.4-.6h0Z"/>
        <path class="st1" d="M6.6,13.5c-.1,0-.3.5-.4.6,0,0-.7.1-.7.2,0,.1.4.5.4.6,0,.1-.1.7,0,.7,0,0,.6-.2.7-.2s.6.3.7.2c0,0,0-.6,0-.7,0-.1.5-.5.4-.6,0-.1-.6-.1-.7-.2,0,0-.3-.6-.4-.6h0Z"/>
        <path class="st1" d="M13,13.5c-.1,0-.3.5-.4.6,0,0-.7.1-.7.2,0,.1.4.5.4.6,0,.1-.1.7,0,.7,0,0,.6-.2.7-.2s.6.3.7.2c0,0,0-.6,0-.7,0-.1.5-.5.4-.6,0-.1-.6-.1-.7-.2,0,0-.3-.6-.4-.6h0Z"/>
        <path class="st1" d="M3.4,13.5c-.1,0-.3.5-.4.6,0,0-.7.1-.7.2,0,.1.4.5.4.6,0,.1-.1.7,0,.7,0,0,.6-.2.7-.2s.6.3.7.2c0,0,0-.6,0-.7,0-.1.5-.5.4-.6,0-.1-.6-.1-.7-.2,0,0-.3-.6-.4-.6h0Z"/>
      </g>
    </g>
  </g>
</svg>